<svg id="visual" viewBox="0 0 960 540" width="960" height="540" xmlns="http://www.w3.org/2000/svg" xmlns:xlink="http://www.w3.org/1999/xlink" version="1.1"><path d="M0 189L17.8 191.5C35.7 194 71.3 199 106.8 199.5C142.3 200 177.7 196 213.2 196.3C248.7 196.7 284.3 201.3 320 202.5C355.7 203.7 391.3 201.3 426.8 201.7C462.3 202 497.7 205 533.2 202C568.7 199 604.3 190 640 193.7C675.7 197.3 711.3 213.7 746.8 217.3C782.3 221 817.7 212 853.2 210.8C888.7 209.7 924.3 216.3 942.2 219.7L960 223L960 0L942.2 0C924.3 0 888.7 0 853.2 0C817.7 0 782.3 0 746.8 0C711.3 0 675.7 0 640 0C604.3 0 568.7 0 533.2 0C497.7 0 462.3 0 426.8 0C391.3 0 355.7 0 320 0C284.3 0 248.7 0 213.2 0C177.7 0 142.3 0 106.8 0C71.3 0 35.7 0 17.8 0L0 0Z" fill="#ff7766"></path><path d="M0 162L17.8 166C35.7 170 71.3 178 106.8 183.5C142.3 189 177.7 192 213.2 191.5C248.7 191 284.3 187 320 186C355.7 185 391.3 187 426.8 186.7C462.3 186.3 497.7 183.7 533.2 179.7C568.7 175.7 604.3 170.3 640 166.2C675.7 162 711.3 159 746.8 164.7C782.3 170.3 817.7 184.7 853.2 184.5C888.7 184.3 924.3 169.7 942.2 162.3L960 155L960 0L942.2 0C924.3 0 888.7 0 853.2 0C817.7 0 782.3 0 746.8 0C711.3 0 675.7 0 640 0C604.3 0 568.7 0 533.2 0C497.7 0 462.3 0 426.8 0C391.3 0 355.7 0 320 0C284.3 0 248.7 0 213.2 0C177.7 0 142.3 0 106.8 0C71.3 0 35.7 0 17.8 0L0 0Z" fill="#ff6e89"></path><path d="M0 144L17.8 141.2C35.7 138.3 71.3 132.7 106.8 130.2C142.3 127.7 177.7 128.3 213.2 132.2C248.7 136 284.3 143 320 144.2C355.7 145.3 391.3 140.7 426.8 137C462.3 133.3 497.7 130.7 533.2 131C568.7 131.3 604.3 134.7 640 135.5C675.7 136.3 711.3 134.7 746.8 135C782.3 135.3 817.7 137.7 853.2 137.5C888.7 137.3 924.3 134.7 942.2 133.3L960 132L960 0L942.2 0C924.3 0 888.7 0 853.2 0C817.7 0 782.3 0 746.8 0C711.3 0 675.7 0 640 0C604.3 0 568.7 0 533.2 0C497.7 0 462.3 0 426.8 0C391.3 0 355.7 0 320 0C284.3 0 248.7 0 213.2 0C177.7 0 142.3 0 106.8 0C71.3 0 35.7 0 17.8 0L0 0Z" fill="#f16eab"></path><path d="M0 137L17.8 136.2C35.7 135.3 71.3 133.7 106.8 132.3C142.3 131 177.7 130 213.2 130.5C248.7 131 284.3 133 320 130.2C355.7 127.3 391.3 119.7 426.8 113.7C462.3 107.7 497.7 103.3 533.2 102.2C568.7 101 604.3 103 640 108.8C675.7 114.7 711.3 124.3 746.8 123.5C782.3 122.7 817.7 111.3 853.2 107.7C888.7 104 924.3 108 942.2 110L960 112L960 0L942.2 0C924.3 0 888.7 0 853.2 0C817.7 0 782.3 0 746.8 0C711.3 0 675.7 0 640 0C604.3 0 568.7 0 533.2 0C497.7 0 462.3 0 426.8 0C391.3 0 355.7 0 320 0C284.3 0 248.7 0 213.2 0C177.7 0 142.3 0 106.8 0C71.3 0 35.7 0 17.8 0L0 0Z" fill="#d677c9"></path><path d="M0 93L17.8 93.2C35.7 93.3 71.3 93.7 106.8 91.8C142.3 90 177.7 86 213.2 85.8C248.7 85.7 284.3 89.3 320 88C355.7 86.7 391.3 80.3 426.8 79.2C462.3 78 497.7 82 533.2 83C568.7 84 604.3 82 640 84.2C675.7 86.3 711.3 92.7 746.8 97C782.3 101.3 817.7 103.7 853.2 100.2C888.7 96.7 924.3 87.3 942.2 82.7L960 78L960 0L942.2 0C924.3 0 888.7 0 853.2 0C817.7 0 782.3 0 746.8 0C711.3 0 675.7 0 640 0C604.3 0 568.7 0 533.2 0C497.7 0 462.3 0 426.8 0C391.3 0 355.7 0 320 0C284.3 0 248.7 0 213.2 0C177.7 0 142.3 0 106.8 0C71.3 0 35.7 0 17.8 0L0 0Z" fill="#ae83df"></path><path d="M0 73L17.8 69.2C35.7 65.3 71.3 57.7 106.8 57.8C142.3 58 177.7 66 213.2 68.5C248.7 71 284.3 68 320 64.7C355.7 61.3 391.3 57.7 426.8 55.2C462.3 52.7 497.7 51.3 533.2 50.8C568.7 50.3 604.3 50.7 640 53C675.7 55.3 711.3 59.7 746.8 60.2C782.3 60.7 817.7 57.3 853.2 57.8C888.7 58.3 924.3 62.7 942.2 64.8L960 67L960 0L942.2 0C924.3 0 888.7 0 853.2 0C817.7 0 782.3 0 746.8 0C711.3 0 675.7 0 640 0C604.3 0 568.7 0 533.2 0C497.7 0 462.3 0 426.8 0C391.3 0 355.7 0 320 0C284.3 0 248.7 0 213.2 0C177.7 0 142.3 0 106.8 0C71.3 0 35.7 0 17.8 0L0 0Z" fill="#788eea"></path><path d="M0 31L17.8 31.8C35.7 32.7 71.3 34.3 106.8 35.3C142.3 36.3 177.7 36.7 213.2 38C248.7 39.3 284.3 41.7 320 40.7C355.7 39.7 391.3 35.3 426.8 34.3C462.3 33.3 497.7 35.7 533.2 37.2C568.7 38.7 604.3 39.3 640 38.2C675.7 37 711.3 34 746.8 33C782.3 32 817.7 33 853.2 31.5C888.7 30 924.3 26 942.2 24L960 22L960 0L942.2 0C924.3 0 888.7 0 853.2 0C817.7 0 782.3 0 746.8 0C711.3 0 675.7 0 640 0C604.3 0 568.7 0 533.2 0C497.7 0 462.3 0 426.8 0C391.3 0 355.7 0 320 0C284.3 0 248.7 0 213.2 0C177.7 0 142.3 0 106.8 0C71.3 0 35.7 0 17.8 0L0 0Z" fill="#2596e8"></path></svg>